<svg width="10" height="8" viewBox="0 0 10 8" fill="none" xmlns="http://www.w3.org/2000/svg">
<path d="M0.184853 7.91857V5.40565C0.184853 4.43823 0.338224 3.5416 0.644966 2.71576C0.975303 1.88992 1.5298 1.07587 2.30845 0.273626L3.68879 1.30003C3.16968 1.86632 2.79216 2.39722 2.5562 2.89273C2.32025 3.36464 2.17867 3.83655 2.13148 4.30846H3.79497V7.91857H0.184853ZM6.06013 7.91857V5.40565C6.06013 4.43823 6.21351 3.5416 6.52025 2.71576C6.85058 1.88992 7.40508 1.07587 8.18373 0.273626L9.56407 1.30003C9.04497 1.86632 8.66744 2.39722 8.43148 2.89273C8.19553 3.36464 8.05395 3.83655 8.00676 4.30846H9.67025V7.91857H6.06013Z" fill="#07043B"/>
</svg>
